<?xml version="1.0" standalone="no"?><svg xmlns="http://www.w3.org/2000/svg" viewBox="0 0 1440 320"><defs>           <linearGradient id="grad1" x1="0%" y1="0%" x2="100%" y2="0%">
                    <stop offset="0%" style="stop-color: rgb(65,88,208) ;stop-opacity:1" />
                    <stop offset="46%" style="stop-color:rgb(200,80,192) ;stop-opacity:1" />
                    <stop offset="100%" style="stop-color:rgb(255,204,112);stop-opacity:1" />
                </linearGradient>
            </defs><path fill="url(#grad1)" d="M0,0L40,32C80,64,160,128,240,176C320,224,400,256,480,245.3C560,235,640,181,720,138.7C800,96,880,64,960,74.7C1040,85,1120,139,1200,138.7C1280,139,1360,85,1400,58.7L1440,32L1440,0L1400,0C1360,0,1280,0,1200,0C1120,0,1040,0,960,0C880,0,800,0,720,0C640,0,560,0,480,0C400,0,320,0,240,0C160,0,80,0,40,0L0,0Z"></path></svg>
